# xmcd
#
# Track frame offsets:
#	150
#	21023
#	39770
#	54738
#	69403
#	86383
#	98698
#	113890
#	128063
#	145315
#	158663
#	175480
#
# Disc length: 2587 seconds
#
# Revision: 2
# Processed by: cddbd v1.4PL0 Copyright (c) Steve Scherf et al.
# Submitted via: audiograbber 1.81.03
#
DISCID=940a190c
DTITLE=Wilmer X - Klubb Bongo
DYEAR=1989
DGENRE=Rock
TTITLE0=Bakom år 2000
TTITLE1=Skjuta mej ut
TTITLE2=Kung för en dag
TTITLE3=Hon är som en vulkan
TTITLE4=Tre små ord
TTITLE5=Jag vill ha dej
TTITLE6=Min generator
TTITLE7=Lille John
TTITLE8=Vilken del av mej
TTITLE9=Flickan är en diamant
TTITLE10=Mitt eget Las Vegas
TTITLE11=Hon är ihop med en insekt
EXTD=
EXTT0=
EXTT1=
EXTT2=
EXTT3=
EXTT4=
EXTT5=
EXTT6=
EXTT7=
EXTT8=
EXTT9=
EXTT10=
EXTT11=
PLAYORDER=
